<svg viewBox="560 940 1920 1360" xmlns="http://www.w3.org/2000/svg">
    <g transform="matrix(0,-3.424805,3.424805,0,0,2480.314961)">
        <path d="M472.688,524.192C472.869,524.941 473.051,525.691 473.232,526.441C473.288,527.706 475.832,537.575 468.59,555.538C444.556,615.154 459.7,618.88 455.742,637.613C454.007,645.826 453.26,631.773 452.879,630.055C447.847,607.385 447.537,606.718 460.799,550.601C461.91,545.901 462.426,523.689 453.425,521.984C449.746,521.287 407.597,513.303 407.427,513.329C405.761,513.589 428.46,563.667 428.287,566.47C428.096,569.572 425.946,568.939 390.47,557.582C312.074,532.487 305.294,527.505 282.877,544.988C247.325,572.714 250.571,576.076 247.428,578.377C242.81,581.757 249.959,565.902 252.876,512.495C253.064,509.057 250.707,511.072 220.5,515.499C215.4,516.246 214.284,517.986 214.737,523.146C216.633,544.721 217.118,545.102 218.988,560.421C221.517,581.128 221.326,579.83 224.232,600.532C225.404,608.888 229.308,604.403 238.446,605.914C249.36,607.718 249.336,606.038 260.496,606.464C261.979,606.52 268.703,596.571 267.665,594.406C262.464,583.548 248.429,591.694 242.426,588.622C237.357,586.027 245.528,577.149 243.598,582.525C240.554,591.005 254.506,586.154 259.446,585.168C263.746,584.309 267.699,590.598 268.375,590.864C275.376,593.617 274.89,594.4 275.528,594.389C297.34,594.003 292.672,608.319 303.489,610.542C306.838,611.231 310.444,609.581 310.478,609.583C316.452,609.989 302.081,616.359 296.756,609.274C295.692,607.859 287.278,596.665 278.499,596.761C271.283,596.841 270.652,596.998 267.503,603.501C266.253,606.081 274.214,611.819 275.302,611.081C279.658,608.124 279.906,607.358 287.375,609.875C297.245,613.201 287.178,627.614 277.611,618.381C274.093,614.985 274.291,619.175 270.608,620.703C258.911,625.555 259.025,626.091 257.504,625.488C243.67,620 238.649,623.812 230.496,626.492C227.197,627.576 239.288,655.335 242.754,658.194C243.709,658.981 258.103,650.017 260.632,647.627C262.773,645.602 284.632,645.945 284.696,639.513C284.701,639.007 284.767,632.343 288.514,634.474C291.722,636.299 291.896,634.948 304.178,625.039C368.99,572.743 288.374,640.694 286.895,641.941C284.359,644.078 287.471,643.812 295.322,646.952C307.894,651.981 307.596,645.927 308.555,646.379C316.727,650.231 317.53,651.195 318.093,651.872C322.83,657.566 318.27,659.674 326.588,672.459C331.369,679.808 317.19,670.541 319.367,673.002C319.527,673.183 325.048,679.424 318.435,675.87C307.839,670.174 307.583,658.965 306.334,657.658C297.699,648.618 290.431,670.7 277.228,662.955C270.375,658.935 270.208,666.399 262.455,664.863C259.486,664.275 251.841,670.827 253.766,673.322C274.583,700.31 307.188,715.068 297.876,741.647C296.079,746.774 292.208,740.311 282.562,738.347C278.297,737.478 301.292,711.072 258.43,689.643C245.888,683.373 244.666,677.013 233.899,685.977C167.128,741.564 165.523,744.811 164.362,741.569C162.891,737.46 232.282,686.264 237.233,680.377C238.209,679.217 237.992,678.281 222.73,668.175C179.263,639.393 173.761,548.301 169.813,512.457C169.208,506.966 165.488,475.248 174.592,443.011C190.431,386.926 200.637,386.097 226.139,360.146C281.619,303.691 275.331,277.318 275.683,275.595C277.384,267.263 278.388,285.321 273.867,299.619C257.537,351.262 213.451,345.917 213.262,444.503C213.253,449.208 213.156,499.529 213.984,503.311C214.047,503.6 214.137,504.946 251.444,500.293C252.858,500.116 254.323,499.58 251.588,482.487C242.531,425.884 226.336,416.429 229.821,411.73C247.014,388.548 253.998,384.66 333.433,415.637C355.816,424.365 398.292,499.313 402.827,507.316C405.806,512.572 448.675,517.561 472.688,524.192Z" style="fill:#222222;"/>
        <path d="M233.574,611.026C235.062,611.481 243.637,612.407 239.282,616.242C239.177,616.335 227.759,623.088 227.038,619.667C226.887,618.947 225.322,611.517 226.496,610.494C227.371,609.732 227.49,610.195 233.574,611.026Z" style="fill:#FAFAF8;"/>
        <path d="M255.392,656.017C263.008,654.355 260.962,658.303 260.616,658.616C252.865,665.637 249.597,672.209 245.705,662.443C245.59,662.154 250.652,657.335 255.392,656.017Z" style="fill:#FAFAF8;"/>
        <path d="M472.688,524.192C478.306,525.404 478.199,525.305 478.469,525.541C481.584,528.267 477.378,526.617 473.232,526.441C473.051,525.691 472.869,524.941 472.688,524.192Z"/>
    </g>
</svg>
